Coordinates
version=1
nRows=49
nColumns=12
inDegrees=yes

Units are S.I. units (second, meters, Newtons, ...)
Angles are in degrees

endheader
time	SC_y	SC_z	SC_x	AC_y	AC_z	AC_x	GH_y	GH_z	GH_yy	EL_x	PS_y
       0.0              -47.48          2.608          14.28          57.65          5.095          19.46          36.36         -14.91         -97.89          74.02          118.9
   0.01116              -47.48          2.607          14.28          57.65          5.092          19.46          36.36         -14.91         -97.86          74.02          118.9
   0.02232              -47.47          2.606          14.28          57.64           5.09          19.46          36.37          -14.9         -97.83          74.03          118.9
   0.03348              -47.47          2.605          14.29          57.64          5.088          19.46          36.37         -14.89          -97.8          74.03          118.9
   0.04464              -47.46          2.604          14.29          57.64          5.085          19.45          36.38         -14.88         -97.76          74.03          118.9
   0.05579              -47.46          2.603          14.29          57.63          5.082          19.45          36.39         -14.88         -97.73          74.03          118.9
   0.06695              -47.45          2.602           14.3          57.63          5.079          19.45           36.4         -14.87         -97.69          74.03          118.9
   0.07811              -47.44          2.601           14.3          57.62          5.076          19.45           36.4         -14.86         -97.64          74.04          118.9
   0.08927              -47.44            2.6          14.31          57.62          5.072          19.45          36.41         -14.85          -97.6          74.04          118.9
    0.1004              -47.43          2.598          14.31          57.61          5.069          19.45          36.42         -14.84         -97.55          74.04          118.9
    0.1116              -47.42          2.597          14.32           57.6          5.065          19.45          36.43         -14.83          -97.5          74.04          118.9
    0.1227              -47.42          2.595          14.32           57.6           5.06          19.45          36.45         -14.81         -97.44          74.05          119.0
    0.1339              -47.41          2.594          14.33          57.59          5.056          19.45          36.46          -14.8         -97.39          74.05          119.0
    0.1451               -47.4          2.592          14.34          57.58          5.051          19.44          36.47         -14.79         -97.32          74.05          119.0
    0.1562              -47.39           2.59          14.34          57.57          5.045          19.44          36.48         -14.77         -97.25          74.06          119.0
    0.1674              -47.38          2.588          14.35          57.56          5.039          19.44           36.5         -14.75         -97.17          74.06          119.0
    0.1785              -47.37          2.585          14.36          57.55          5.033          19.44          36.52         -14.74         -97.09          74.07          119.0
    0.1897              -47.35          2.583          14.37          57.54          5.026          19.44          36.54         -14.72          -97.0          74.07          119.0
    0.2009              -47.34           2.58          14.38          57.53          5.019          19.43          36.56         -14.69          -96.9          74.08          119.0
     0.212              -47.32          2.577          14.39          57.51           5.01          19.43          36.58         -14.67          -96.8          74.08          119.0
    0.2232              -47.31          2.573           14.4           57.5          5.001          19.43           36.6         -14.64         -96.68          74.09          119.1
    0.2343              -47.29           2.57          14.42          57.48          4.991          19.43          36.63         -14.62         -96.55           74.1          119.1
    0.2455              -47.27          2.566          14.43          57.46           4.98          19.42          36.66         -14.58         -96.41           74.1          119.1
    0.2567              -47.24          2.561          14.45          57.44          4.968          19.42          36.69         -14.55         -96.25          74.11          119.1
    0.2678              -47.22          2.556          14.47          57.42          4.954          19.42          36.72         -14.51         -96.07          74.12          119.2
     0.279              -47.19          2.551          14.49          57.39          4.939          19.41          36.76         -14.47         -95.87          74.13          119.2
    0.2901              -47.16          2.544          14.51          57.37          4.922          19.41          36.81         -14.42         -95.65          74.15          119.2
    0.3013              -47.12          2.537          14.54          57.33          4.902           19.4          36.86         -14.36         -95.41          74.16          119.2
    0.3124              -47.08          2.529          14.57           57.3          4.881          19.39          36.92          -14.3         -95.13          74.17          119.3
    0.3236              -47.04           2.52           14.6          57.26          4.856          19.39          36.98         -14.23         -94.81          74.19          119.3
    0.3348              -46.99           2.51          14.64          57.21          4.828          19.38          37.05         -14.15         -94.44          74.21          119.4
    0.3459              -46.93          2.498          14.69          57.16          4.796          19.37          37.14         -14.05         -94.03          74.23          119.4
    0.3571              -46.86          2.484          14.74           57.1          4.758          19.36          37.24         -13.95         -93.55          74.26          119.5
    0.3682              -46.78          2.468           14.8          57.03          4.715          19.34          37.35         -13.82         -92.99          74.29          119.6
    0.3794              -46.68           2.45          14.87          56.94          4.664          19.33          37.48         -13.68         -92.33          74.33          119.7
    0.3906              -46.57          2.428          14.95          56.84          4.605          19.31          37.64         -13.51         -91.56          74.37          119.8
    0.4017              -46.44          2.402          15.05          56.73          4.534          19.29          37.83          -13.3         -90.65          74.42          119.9
    0.4129              -46.29           2.37          15.16          56.59          4.448          19.26          38.05         -13.06         -89.55          74.48          120.1
     0.424              -46.09          2.332          15.31          56.42          4.345          19.23          38.32         -12.76         -88.22          74.55          120.3
    0.4352              -45.86          2.286          15.48          56.21           4.22           19.2          38.65          -12.4         -86.59          74.64          120.5
    0.4464              -45.58          2.229          15.69          55.95          4.064          19.15          39.06         -11.96         -84.59          74.75          120.8
    0.4575              -45.22          2.158          15.96          55.63          3.871          19.09          39.56          -11.4         -82.09          74.89          121.2
    0.4687              -44.77          2.068          16.29          55.23          3.627          19.02           40.2          -10.7         -78.94          75.06          121.6
    0.4798              -44.19          1.954          16.72          54.72          3.317          18.93          41.02         -9.811         -74.94          75.28          122.2
     0.491              -43.46          1.808          17.26          54.07           2.92          18.81          42.06         -8.672         -69.82          75.56          122.9
    0.5021              -42.52          1.621          17.96          53.23           2.41          18.66          43.39         -7.211         -63.25          75.92          123.9
    0.5133              -41.32          1.382          18.86          52.15           1.76          18.46           45.1         -5.344         -54.85          76.38          125.1
    0.5245              -39.81          1.081          19.98           50.8         0.9416          18.22          47.24         -2.997         -44.29          76.95          126.6
    0.5356              -37.97         0.7144          21.35          49.16        -0.0553          17.92          49.85        -0.1361         -31.43          77.66          128.5
